<svg width="52" height="52" viewBox="0 0 52 52" fill="none" xmlns="http://www.w3.org/2000/svg">
<g style="mix-blend-mode:darken">
<path d="M51.5 26C51.5 40.0833 40.0833 51.5 26 51.5C11.9167 51.5 0.5 40.0833 0.5 26C0.5 11.9167 11.9167 0.5 26 0.5C40.0833 0.5 51.5 11.9167 51.5 26Z" stroke="#FFC7C7"/>
</g>
<path d="M25.6132 36.6578C26.0037 37.0483 26.6369 37.0483 27.0274 36.6578L33.3914 30.2938C33.7819 29.9033 33.7819 29.2701 33.3914 28.8796C33.0009 28.4891 32.3677 28.4891 31.9772 28.8796L26.3203 34.5365L20.6635 28.8796C20.2729 28.4891 19.6398 28.4891 19.2492 28.8796C18.8587 29.2701 18.8587 29.9033 19.2492 30.2938L25.6132 36.6578ZM25.3203 16.6914L25.3203 35.9507H27.3203L27.3203 16.6914H25.3203Z" fill="#FFC7C7"/>
</svg>
