<svg width="24" height="24" viewBox="0 0 24 24" fill="none" xmlns="http://www.w3.org/2000/svg">
<path d="M12 24C5.38252 24 0 18.6175 0 12C0 5.38252 5.38252 0 12 0C18.6175 0 24 5.38252 24 12C24.0044 18.6175 18.6175 24 12 24ZM16.0502 7.13095C15.5588 7.13095 15.1605 7.52933 15.1605 8.02066C15.1605 8.51199 15.5588 8.91037 16.0502 8.91037C16.5415 8.91037 16.9399 8.51199 16.9399 8.02066C16.9399 7.52933 16.5371 7.13095 16.0502 7.13095ZM12.1018 8.26853C10.0435 8.26853 8.37034 9.94172 8.37034 12C8.37034 14.0583 10.0435 15.7315 12.1018 15.7315C14.1601 15.7315 15.8333 14.0583 15.8333 12C15.8333 9.94172 14.1557 8.26853 12.1018 8.26853ZM12.1018 14.3903C10.7827 14.3903 9.71155 13.3191 9.71155 12C9.71155 10.6809 10.7827 9.60974 12.1018 9.60974C13.4209 9.60974 14.4921 10.6809 14.4921 12C14.4921 13.3146 13.4165 14.3903 12.1018 14.3903ZM19.6267 8.89708C19.6267 6.38288 17.5906 4.34674 15.0764 4.34674H9.06972C6.55552 4.34674 4.51937 6.38288 4.51937 8.89708V14.9037C4.51937 17.4179 6.55552 19.4541 9.06972 19.4541H15.0764C17.5906 19.4541 19.6267 17.4179 19.6267 14.9037V8.89708ZM18.2014 14.9037C18.2014 16.63 16.8027 18.0288 15.0764 18.0288H9.06972C7.34342 18.0288 5.94467 16.63 5.94467 14.9037V8.89708C5.94467 7.17078 7.34342 5.77204 9.06972 5.77204H15.0764C16.8027 5.77204 18.2014 7.17078 18.2014 8.89708V14.9037Z" fill="url(#paint0_linear_542_304)"/>
<defs>
<linearGradient id="paint0_linear_542_304" x1="12" y1="0" x2="12" y2="24" gradientUnits="userSpaceOnUse">
<stop stop-color="#B76472"/>
<stop offset="1" stop-color="#DB9197"/>
</linearGradient>
</defs>
</svg>
