<svg width="21" height="20" viewBox="0 0 21 20" fill="none" xmlns="http://www.w3.org/2000/svg">
<path d="M13.3398 14.2142L15.0628 12.4912C15.2948 12.2621 15.5884 12.1052 15.9079 12.0396C16.2274 11.9741 16.5591 12.0027 16.8626 12.122L18.9624 12.9604C19.2692 13.0849 19.5322 13.2975 19.7183 13.5712C19.9045 13.845 20.0054 14.1677 20.0085 14.4987V18.3446C20.0067 18.5697 19.9593 18.7923 19.8693 18.9987C19.7793 19.2051 19.6484 19.3911 19.4845 19.5457C19.3207 19.7002 19.1273 19.8199 18.9159 19.8977C18.7046 19.9755 18.4797 20.0097 18.2548 19.9983C3.5407 19.083 0.571732 6.62252 0.0102433 1.85371C-0.0158214 1.61953 0.00799322 1.38248 0.0801203 1.15817C0.152247 0.933849 0.271052 0.727346 0.428719 0.552241C0.586386 0.377136 0.779342 0.237399 0.994892 0.142222C1.21044 0.0470448 1.4437 -0.00141461 1.67933 3.14349e-05H5.39438C5.7259 0.00101272 6.04954 0.101151 6.32368 0.287567C6.59782 0.473983 6.80992 0.73815 6.93271 1.04609L7.77109 3.14591C7.89435 3.44824 7.9258 3.78019 7.86151 4.10029C7.79721 4.42039 7.64003 4.71446 7.40959 4.94575L5.68666 6.66867C5.68666 6.66867 6.67888 13.3835 13.3398 14.2142Z" fill="#2E6977"/>
</svg>
