<svg width="20" height="26" viewBox="0 0 20 26" fill="none" xmlns="http://www.w3.org/2000/svg">
<path d="M9.99999 0C7.34879 0.0031277 4.80707 1.0577 2.93239 2.93238C1.05771 4.80706 0.00313833 7.34878 1.0639e-05 9.99998C-0.00316471 12.1665 0.704537 14.2743 2.01455 16C2.01455 16 2.28728 16.3591 2.33182 16.4109L9.99999 25.4545L17.6718 16.4063C17.7118 16.3582 17.9854 16 17.9854 16L17.9863 15.9972C19.2957 14.2723 20.0031 12.1656 20 9.99998C19.9968 7.34878 18.9423 4.80706 17.0676 2.93238C15.1929 1.0577 12.6512 0.0031277 9.99999 0ZM9.99999 13.6363C9.28079 13.6363 8.57774 13.4231 7.97974 13.0235C7.38175 12.6239 6.91566 12.056 6.64044 11.3916C6.36521 10.7271 6.2932 9.99595 6.43351 9.29056C6.57382 8.58518 6.92015 7.93724 7.4287 7.42869C7.93725 6.92014 8.58519 6.57381 9.29057 6.4335C9.99596 6.29319 10.7271 6.3652 11.3916 6.64043C12.056 6.91565 12.6239 7.38173 13.0235 7.97973C13.4231 8.57773 13.6363 9.28078 13.6363 9.99998C13.6351 10.964 13.2516 11.8883 12.57 12.5699C11.8883 13.2516 10.964 13.6351 9.99999 13.6363Z" fill="#2E6977"/>
</svg>
