<svg width="24" height="24" viewBox="0 0 24 24" fill="none" xmlns="http://www.w3.org/2000/svg">
<circle cx="12" cy="12" r="12" fill="url(#paint0_linear_542_307)"/>
<path d="M11.9996 4.64014C7.9387 4.64014 4.63965 7.93919 4.63965 12.0001C4.63965 13.3054 4.99763 14.5236 5.59465 15.587L4.65152 18.9539C4.63646 19.0078 4.63578 19.0646 4.64955 19.1189C4.66332 19.1731 4.69107 19.2228 4.73002 19.2629C4.76898 19.3031 4.81778 19.3323 4.87155 19.3477C4.92533 19.3631 4.98221 19.3642 5.03652 19.3508L8.54715 18.4808C9.57873 19.0315 10.7493 19.3601 11.9996 19.3601C16.0606 19.3601 19.3596 16.0611 19.3596 12.0001C19.3596 7.93919 16.0606 4.64014 11.9996 4.64014ZM11.9996 5.28014C15.7147 5.28014 18.7196 8.28509 18.7196 12.0001C18.7196 15.7152 15.7147 18.7201 11.9996 18.7201C10.8086 18.7201 9.69313 18.4096 8.7234 17.867C8.65247 17.8274 8.56913 17.8162 8.49027 17.8358L5.4159 18.5976L6.24027 15.6564C6.25207 15.6148 6.25533 15.5713 6.24985 15.5284C6.24437 15.4856 6.23027 15.4443 6.2084 15.407C5.61907 14.4077 5.27965 13.245 5.27965 12.0001C5.27965 8.28509 8.2846 5.28014 11.9996 5.28014ZM9.32527 8.16014C9.12014 8.16014 8.82718 8.23645 8.58652 8.49576C8.44197 8.65151 7.83965 9.23838 7.83965 10.2701C7.83965 11.3458 8.58569 12.274 8.6759 12.3933H8.67652V12.3939C8.66797 12.3826 8.79102 12.5608 8.95527 12.7745C9.11953 12.9882 9.34922 13.2688 9.63777 13.5726C10.2149 14.1803 11.0263 14.8825 12.0334 15.312C12.4972 15.5095 12.8631 15.6287 13.1403 15.7158C13.654 15.8771 14.1219 15.8526 14.4734 15.8008C14.7365 15.762 15.0258 15.6357 15.3121 15.4545C15.5984 15.2733 15.879 15.048 16.0028 14.7058C16.0914 14.4604 16.1365 14.2336 16.1528 14.047C16.1609 13.9537 16.162 13.8714 16.1559 13.7951C16.1498 13.7189 16.1563 13.6605 16.0853 13.5439C15.9363 13.2993 15.7676 13.2929 15.5915 13.2058C15.4937 13.1574 15.2152 13.0214 14.9359 12.8883C14.6569 12.7553 14.4153 12.6376 14.2665 12.5845C14.1725 12.5507 14.0577 12.502 13.8921 12.5208C13.7266 12.5395 13.563 12.659 13.4678 12.8001C13.3775 12.9339 13.0142 13.3628 12.9034 13.4889C12.9019 13.488 12.9115 13.4924 12.8678 13.4708C12.7308 13.403 12.5632 13.3453 12.3153 13.2145C12.0673 13.0837 11.7572 12.8906 11.4178 12.5914V12.5908C10.9126 12.146 10.5588 11.5877 10.4471 11.4001C10.4547 11.3912 10.4463 11.402 10.4621 11.3864L10.4628 11.3858C10.5769 11.2734 10.678 11.1392 10.7634 11.0408C10.8845 10.9012 10.938 10.7782 10.9959 10.6633C11.1113 10.4342 11.047 10.1821 10.9803 10.0495V10.0489C10.9849 10.0581 10.9442 9.96819 10.9003 9.86451C10.8563 9.76054 10.8002 9.62575 10.7403 9.48201C10.6205 9.19454 10.4867 8.87211 10.4071 8.68326V8.68264C10.3134 8.4602 10.1867 8.29995 10.0209 8.22264C9.85514 8.14533 9.7087 8.16731 9.70277 8.16701H9.70215C9.58386 8.16155 9.45406 8.16014 9.32527 8.16014ZM9.32527 8.80014C9.44865 8.80014 9.57028 8.80164 9.67215 8.80639C9.77695 8.81161 9.77043 8.81204 9.75027 8.80264C9.7298 8.79309 9.75758 8.78999 9.81715 8.93139C9.89504 9.1163 10.0295 9.4399 10.1496 9.72826C10.2097 9.87244 10.266 10.0078 10.3109 10.1139C10.3558 10.22 10.3802 10.2793 10.4084 10.3358V10.3364L10.409 10.337C10.4367 10.3917 10.4343 10.3567 10.4246 10.3758C10.3571 10.5098 10.348 10.5427 10.2796 10.6214C10.1756 10.7412 10.0696 10.8748 10.0134 10.9301C9.96427 10.9784 9.87562 11.0536 9.82027 11.2008C9.76484 11.3482 9.79071 11.5504 9.87965 11.7014C9.99806 11.9024 10.3883 12.5375 10.9946 13.0714C11.3765 13.408 11.7323 13.6308 12.0165 13.7808C12.3007 13.9307 12.5322 14.0182 12.584 14.0439C12.707 14.1048 12.8415 14.152 12.9978 14.1333C13.1541 14.1145 13.2889 14.0196 13.3746 13.9226L13.3753 13.922C13.4894 13.7926 13.8287 13.4052 13.9915 13.1664C13.9984 13.1688 13.9962 13.1669 14.0503 13.1864V13.187H14.0509C14.0756 13.1958 14.385 13.3343 14.6609 13.4658C14.9368 13.5972 15.2168 13.7339 15.3078 13.7789C15.4391 13.8439 15.5011 13.8862 15.5171 13.8864C15.5182 13.9145 15.5193 13.9451 15.5153 13.9914C15.5041 14.1199 15.4697 14.2978 15.4009 14.4883C15.3672 14.5815 15.1917 14.7738 14.9703 14.9139C14.7489 15.054 14.4794 15.1529 14.3796 15.1676C14.0796 15.2118 13.7234 15.228 13.3321 15.1051C13.0609 15.02 12.7226 14.9098 12.2846 14.7233C11.3964 14.3444 10.6414 13.6998 10.1021 13.132C9.8325 12.8481 9.61647 12.5838 9.46277 12.3839C9.30937 12.1843 9.24238 12.0805 9.18652 12.007L9.1859 12.0064C9.08675 11.8753 8.47965 11.0308 8.47965 10.2701C8.47965 9.46509 8.85357 9.1494 9.0559 8.93139C9.16212 8.81693 9.27825 8.80014 9.32527 8.80014Z" fill="white"/>
<defs>
<linearGradient id="paint0_linear_542_307" x1="12" y1="0" x2="12" y2="24" gradientUnits="userSpaceOnUse">
<stop stop-color="#B76472"/>
<stop offset="1" stop-color="#DB9197"/>
</linearGradient>
</defs>
</svg>
